<svg xmlns="http://www.w3.org/2000/svg" viewBox="0 0 734.03 376.9"><defs><style>.a{fill:#029c9b}.b{fill:#1d1d1b}</style></defs><path class="a" d="m279.45 103.17-15-65L0 99.26l61.05 264.45 264.45-61-34.6-149.91a73.65 73.65 0 0 1-6.1 15.65 33.92 33.92 0 0 1-7.63 9.89c-2.64 2.17-4.8 3.25-6.5 3.25a8.48 8.48 0 0 1-4.52-1.41l-6.5-4.8a7.35 7.35 0 0 1-2.54-5.08 5.88 5.88 0 0 1 1.13-3.53c.75-1 1.6-2.16 2.54-3.39a22.77 22.77 0 0 0 2.54-4.24 13.56 13.56 0 0 0 1.13-5.79v-1.41a27 27 0 0 1-21.75-25.71 24.35 24.35 0 0 1 7.48-18.08 24.69 24.69 0 0 1 17.94-7.34 26.56 26.56 0 0 1 11.3 2.36Zm-40.21 142.4c0 2.12-1 3.17-3 3.17h-64.77q-3 0-3-3.17V144.92a2.93 2.93 0 0 1 .94-2.38 3.13 3.13 0 0 1 2.09-.79h21.6q3 0 3 3.17v78.3h40.09q3 0 3 3.17v19.18ZM357.76.44a6.12 6.12 0 0 0-2.63-.44 4.91 4.91 0 0 0-2.63.73c-.78.49-1.46.93-2.05 1.32l-35.38 35.38a6.73 6.73 0 0 0-2.19 4.39q-.15 2.34 2.19 4.68l12.28 11.7q2.34 2.34 4.68 2.19a6.82 6.82 0 0 0 4.39-2.19l18.42-19 18.71 18.7a6.69 6.69 0 0 0 4.39 2.19q2.34.15 4.68-2.19l12-11.4q2.34-2.34 2.19-4.68a6.82 6.82 0 0 0-2.19-4.39L359.81 2.05a8.36 8.36 0 0 0-2.05-1.61Z"/><path class="b" d="M341.92 248.73h21.63q3.17 0 3.17-3.17V144.91q0-3.16-3.17-3.17h-21.63q-3 0-3 3.17v100.65c0 2.12 1 3.17 3 3.17Zm77 0h64.74q3 0 3-3.17v-19.18q0-3.16-3-3.17h-40.09v-78.3q0-3.16-3-3.17h-21.66a3.19 3.19 0 0 0-2.09.79 2.93 2.93 0 0 0-.94 2.38v100.65c0 2.12 1 3.17 3 3.17Zm123.93-64.6a28.22 28.22 0 0 1 5.62-9.08 25.92 25.92 0 0 1 8.65-6.13 28 28 0 0 1 21.92 0 25.92 25.92 0 0 1 8.65 6.13 28.32 28.32 0 0 1 5.62 9.08 30.47 30.47 0 0 1 2 11.1 31.06 31.06 0 0 1-2 11.25 27.53 27.53 0 0 1-5.62 9 26.47 26.47 0 0 1-8.65 6.06 27.93 27.93 0 0 1-21.92 0 26.36 26.36 0 0 1-8.65-6.06 27.47 27.47 0 0 1-5.62-9 30.68 30.68 0 0 1-2-11.25 29.88 29.88 0 0 1 2-11.1Zm-25.52 32.66A54.72 54.72 0 0 0 546.6 246a55.39 55.39 0 0 0 42.89 0A56.37 56.37 0 0 0 607 234.24a54.73 54.73 0 0 0 11.82-17.45 53.51 53.51 0 0 0 4.33-21.41 54.1 54.1 0 0 0-4.33-21.56 55.41 55.41 0 0 0-29.34-29.34 55.27 55.27 0 0 0-42.89 0 54.75 54.75 0 0 0-17.52 11.82 56.37 56.37 0 0 0-11.75 17.52 53.89 53.89 0 0 0-4.32 21.56 53 53 0 0 0 4.33 21.41Zm135.38-50.4h25.38v79.16c0 2.12 1.06 3.17 3.17 3.17H702q3.32 0 3.32-3.17v-79.16h25.52q3.17 0 3.17-3.17v-18.31q0-3.16-3.17-3.17h-78.13c-2.12 0-3.17 1.06-3.17 3.17v18.31c0 2.12 1.06 3.17 3.17 3.17Z"/><path d="M169.38 142.53a2.93 2.93 0 0 0-.94 2.38v100.65c0 2.12 1 3.17 3 3.17h64.74q3 0 3-3.17v-19.18q0-3.16-3-3.17h-40.06v-78.3q0-3.16-3-3.17h-21.66a3.19 3.19 0 0 0-2.09.79ZM291 152.59l-11.4-49.38a26.49 26.49 0 0 0-11.42-2.41 24.73 24.73 0 0 0-17.94 7.34 24.33 24.33 0 0 0-7.48 18.08 27 27 0 0 0 21.75 25.71v1.41a13.56 13.56 0 0 1-1.13 5.79 23.1 23.1 0 0 1-2.54 4.24c-.95 1.23-1.79 2.36-2.54 3.39a5.9 5.9 0 0 0-1.13 3.53 7.31 7.31 0 0 0 2.54 5.08l6.5 4.8a8.48 8.48 0 0 0 4.52 1.41q2.54 0 6.5-3.25a33.79 33.79 0 0 0 7.63-9.89 74.08 74.08 0 0 0 6.14-15.86Z" style="fill:#fff"/><path class="b" d="M365.92 328.72v-23.1h16.6v4.75h-11.58v4.06h6.47v4.75h-6.47v4.75h12.24v4.79ZM407.86 328.72h-4.39l-8.71-12.24a12.9 12.9 0 0 1-1-1.75 10.67 10.67 0 0 1 .1 1.75v12.24h-4.95v-23.1h4.59l8.5 12.11a8.34 8.34 0 0 1 1 1.72 12.05 12.05 0 0 1-.1-1.75v-12.08h5v23.1ZM422.71 329.11a9.46 9.46 0 0 1-5.79-1.8 9.81 9.81 0 0 1-3.48-5l4.49-1.68a7.28 7.28 0 0 0 2.08 2.69 4.51 4.51 0 0 0 2.84 1 4.64 4.64 0 0 0 2.54-.61 2 2 0 0 0 .92-1.77 1.75 1.75 0 0 0-.68-1.35 4.58 4.58 0 0 0-1.42-.88c-.5-.19-1.26-.45-2.29-.78l-1.53-.51c-.34-.12-.83-.31-1.47-.58a8.34 8.34 0 0 1-1.45-.73c-.33-.22-.73-.52-1.19-.89a4.14 4.14 0 0 1-1-1.17 7.53 7.53 0 0 1-.61-1.49 6.24 6.24 0 0 1-.26-1.86 5.9 5.9 0 0 1 2.18-4.65 8.75 8.75 0 0 1 5.91-1.88 8.28 8.28 0 0 1 5.21 1.62 7.66 7.66 0 0 1 2.8 4.16l-4.51 1.49a3.85 3.85 0 0 0-3.79-2.48c-1.8 0-2.81.63-2.81 1.88a1.21 1.21 0 0 0 .26.76 2.72 2.72 0 0 0 1 .66c.46.22.84.39 1.14.5l1.57.56q1.19.39 1.83.63c.43.16 1 .39 1.77.71a7.13 7.13 0 0 1 1.77 1A16 16 0 0 1 430 318a4.49 4.49 0 0 1 1 1.78 7.58 7.58 0 0 1 .31 2.24 6.22 6.22 0 0 1-2.44 5.18 9.67 9.67 0 0 1-6.17 1.91ZM437.23 328.72v-23.1h16.6v4.75h-11.58v4.06h6.47v4.75h-6.47v4.75h12.24v4.79ZM482.08 328.72h-5v-12.18q-.16.39-.3.66l-5.61 11.91-5.68-11.85c-.07-.15-.15-.4-.26-.73v12.18h-5v-23.1h5.12l5.38 11.78c.15.35.34.84.56 1.45.22-.62.41-1.1.56-1.45l5.54-11.78h4.69v23.1ZM489 305.62h10.9q4 0 5.79 1.8a6 6 0 0 1 1.83 4.47c0 2.38-.87 4-2.61 4.79a4.7 4.7 0 0 1 2.52 2.08 6 6 0 0 1 .84 3 6.82 6.82 0 0 1-1.95 4.9q-1.95 2-6 2H489v-23.1Zm10.4 9c2 0 3-.73 3-2.18s-.83-2.15-2.47-2.15H494v4.32h5.38Zm1.16 9.37a2.6 2.6 0 0 0 2-.69 2.33 2.33 0 0 0 .63-1.62q0-2.54-3.53-2.54H494V324ZM514.35 328.72v-23.1h5v18.25h11.09v4.85h-16.09ZM535.14 328.72v-23.1h16.6v4.75h-11.58v4.06h6.47v4.75h-6.47v4.75h12.24v4.79ZM556.72 331.72a9 9 0 0 0 1.17-1.29 10.13 10.13 0 0 0 1-1.52 2.91 2.91 0 0 1-1.68-2.74 2.66 2.66 0 0 1 .89-2.06 3 3 0 0 1 2.08-.81 2.72 2.72 0 0 1 2.08.89 3.36 3.36 0 0 1 .83 2.38 6.85 6.85 0 0 1-1.29 3.79 9.74 9.74 0 0 1-3 3l-2.11-1.65ZM588.14 329.05a9.66 9.66 0 0 1-4.57-1 7.71 7.71 0 0 1-3.05-2.79 13.16 13.16 0 0 1-1.6-3.76 17.39 17.39 0 0 1-.51-4.29 16 16 0 0 1 .53-4.08 14.21 14.21 0 0 1 1.62-3.79 8.11 8.11 0 0 1 3.05-2.9 9.06 9.06 0 0 1 4.54-1.11 8.82 8.82 0 0 1 5.35 1.62 9 9 0 0 1 3.13 3.93l-4.49 2a8.71 8.71 0 0 0-1.83-2.08 3.47 3.47 0 0 0-2.16-.66 3.63 3.63 0 0 0-2.14.64 4.14 4.14 0 0 0-1.42 1.72 10.3 10.3 0 0 0-.73 2.24 13 13 0 0 0-.23 2.46 11.75 11.75 0 0 0 .45 3.3 6.25 6.25 0 0 0 1.52 2.66 3.43 3.43 0 0 0 2.56 1.11q2.15 0 3.93-3l4.59 1.72q-2.8 6.08-8.51 6.07ZM616.35 328.72v-9.47h-9.17v9.47h-5v-23.1h5v8.84h9.17v-8.84h5v23.1ZM637.74 329.11a10.72 10.72 0 0 1-3.94-.69 8.23 8.23 0 0 1-2.92-1.86 10.7 10.7 0 0 1-1.93-2.72 13 13 0 0 1-1.12-3.22 17.18 17.18 0 0 1 0-6.9 13.53 13.53 0 0 1 1.17-3.22 10.29 10.29 0 0 1 1.93-2.72 8.23 8.23 0 0 1 2.92-1.86 10.75 10.75 0 0 1 3.94-.69 10.35 10.35 0 0 1 4.72 1 8.17 8.17 0 0 1 3.2 2.8 13.67 13.67 0 0 1 1.73 3.81 15.87 15.87 0 0 1 .58 4.29 15.49 15.49 0 0 1-.58 4.29 14 14 0 0 1-1.73 3.81 8.1 8.1 0 0 1-3.2 2.8 10.32 10.32 0 0 1-4.77 1.08Zm0-4.85a4 4 0 0 0 2.9-1.17 6.31 6.31 0 0 0 1.65-2.71 11 11 0 0 0 .46-3.22 12.17 12.17 0 0 0-.43-3.32 5.89 5.89 0 0 0-1.62-2.67 4.42 4.42 0 0 0-6 0 5.91 5.91 0 0 0-1.63 2.71 11.87 11.87 0 0 0-.43 3.25 11.69 11.69 0 0 0 .26 2.47 9 9 0 0 0 .83 2.26 4.51 4.51 0 0 0 1.58 1.72 4.35 4.35 0 0 0 2.38.64ZM654.2 328.72v-23.1h5v23.1ZM674.23 329.11a9.46 9.46 0 0 1-5.79-1.8 9.81 9.81 0 0 1-3.48-5l4.49-1.68a7.28 7.28 0 0 0 2.08 2.69 4.51 4.51 0 0 0 2.84 1 4.64 4.64 0 0 0 2.54-.61 2 2 0 0 0 .92-1.77 1.75 1.75 0 0 0-.68-1.35 4.58 4.58 0 0 0-1.42-.88c-.5-.19-1.26-.45-2.29-.78l-1.53-.51c-.34-.12-.83-.31-1.47-.58a8.34 8.34 0 0 1-1.45-.73c-.33-.22-.73-.52-1.19-.89a4.14 4.14 0 0 1-1-1.17 7.53 7.53 0 0 1-.61-1.49 6.24 6.24 0 0 1-.26-1.86 5.9 5.9 0 0 1 2.18-4.65 8.75 8.75 0 0 1 5.91-1.88 8.28 8.28 0 0 1 5.21 1.62A7.66 7.66 0 0 1 682 311l-4.49 1.45a3.85 3.85 0 0 0-3.79-2.48c-1.8 0-2.81.63-2.81 1.88a1.21 1.21 0 0 0 .26.76 2.72 2.72 0 0 0 1 .66c.46.22.84.39 1.14.5l1.57.56q1.18.39 1.83.63c.43.16 1 .39 1.77.71a7.13 7.13 0 0 1 1.77 1 16 16 0 0 1 1.34 1.3 4.49 4.49 0 0 1 1 1.78 7.58 7.58 0 0 1 .31 2.24 6.22 6.22 0 0 1-2.44 5.18 9.67 9.67 0 0 1-6.17 1.91ZM688.92 328.72v-23.1h5v23.1ZM701 328.72v-23.1h11.25q4.15 0 6 2.08a7.77 7.77 0 0 1 1.86 5.38 8 8 0 0 1-1.12 4 6.17 6.17 0 0 1-3.07 2.74l4.32 8.91h-5.61l-4.19-8.15H706v8.15h-5Zm5-12.9h6.3c1.74 0 2.61-.91 2.61-2.74a3 3 0 0 0-.61-1.93 2.39 2.39 0 0 0-2-.78H706v5.44Z"/><path class="a" d="M365.92 376.51v-23.1h5v18.25H382v4.85h-16.08ZM402 376.51l-1.77-4.51h-8.68l-1.72 4.49h-5.48l9.11-23.1h4.82l9.14 23.1H402Zm-3.4-9.11-2-5a16.84 16.84 0 0 1-.69-1.95 17.56 17.56 0 0 1-.69 1.95l-2 5h5.34ZM419.64 376.51v-23.1h11.25q4.16 0 6 2.08a7.77 7.77 0 0 1 1.86 5.38 8 8 0 0 1-1.12 4 6.17 6.17 0 0 1-3.07 2.74l4.32 8.91h-5.61l-4.19-8.15h-4.46v8.15h-5Zm5-12.9H431c1.74 0 2.61-.91 2.61-2.74a3 3 0 0 0-.61-1.93 2.39 2.39 0 0 0-2-.78h-6.3v5.44ZM443.8 376.51v-23.1h16.6v4.75h-11.58v4.06h6.47V367h-6.47v4.75h12.24v4.79Zm4.59-25.25 4.69-5.15h5.71l-5.87 5.15h-4.53ZM465.94 376.51v-23.1h5v23.1ZM495.94 376.51h-4.39l-8.71-12.24a12.9 12.9 0 0 1-1-1.75 10.67 10.67 0 0 1 .1 1.75v12.24H477v-23.1h4.59l8.48 12.11a8.34 8.34 0 0 1 1 1.72 12.05 12.05 0 0 1-.1-1.75v-12.08h5v23.1ZM509.76 376.9a9.46 9.46 0 0 1-5.79-1.8 9.81 9.81 0 0 1-3.48-5l4.49-1.68a7.28 7.28 0 0 0 2.08 2.69 4.51 4.51 0 0 0 2.84 1 4.64 4.64 0 0 0 2.54-.61 2 2 0 0 0 .92-1.77 1.75 1.75 0 0 0-.68-1.35 4.58 4.58 0 0 0-1.42-.88c-.5-.19-1.26-.45-2.29-.78l-1.53-.51c-.34-.12-.83-.31-1.47-.58a8.34 8.34 0 0 1-1.45-.73c-.33-.22-.73-.52-1.19-.89a4.14 4.14 0 0 1-1-1.17 7.53 7.53 0 0 1-.61-1.49 6.24 6.24 0 0 1-.26-1.86 5.9 5.9 0 0 1 2.18-4.65 8.75 8.75 0 0 1 5.91-1.88 8.28 8.28 0 0 1 5.21 1.62 7.66 7.66 0 0 1 2.8 4.16l-4.56 1.49a3.85 3.85 0 0 0-3.79-2.48c-1.8 0-2.81.63-2.81 1.88a1.21 1.21 0 0 0 .26.76 2.72 2.72 0 0 0 1 .66c.46.22.84.39 1.14.5l1.57.56q1.18.39 1.83.63c.43.16 1 .39 1.77.71a7.13 7.13 0 0 1 1.77 1 16 16 0 0 1 1.34 1.3 4.49 4.49 0 0 1 1 1.78 7.58 7.58 0 0 1 .31 2.24A6.22 6.22 0 0 1 516 375a9.67 9.67 0 0 1-6.17 1.91ZM523.26 376.51v-23.1h16.6v4.75h-11.58v4.06h6.47V367h-6.47v4.75h12.24v4.79ZM545.24 376.51v-23.1h11.25q4.15 0 6 2.08a7.77 7.77 0 0 1 1.86 5.38 8 8 0 0 1-1.12 4 6.17 6.17 0 0 1-3.07 2.74l4.32 8.91h-5.61l-4.19-8.15h-4.46v8.15h-5Zm5-12.9h6.3c1.74 0 2.61-.91 2.61-2.74a3 3 0 0 0-.61-1.93 2.39 2.39 0 0 0-2-.78h-6.3v5.44ZM579.39 358.22v18.28h-5v-18.28h-6.63v-4.82H586v4.82ZM590.58 376.51v-23.1h5v23.1ZM611.07 376.9a10.72 10.72 0 0 1-3.94-.69 8.23 8.23 0 0 1-2.92-1.86 10.7 10.7 0 0 1-1.93-2.72 13 13 0 0 1-1.12-3.22 17.18 17.18 0 0 1 0-6.9 13.53 13.53 0 0 1 1.12-3.22 10.29 10.29 0 0 1 1.93-2.72 8.23 8.23 0 0 1 2.92-1.86 10.75 10.75 0 0 1 3.94-.69 10.35 10.35 0 0 1 4.72 1 8.17 8.17 0 0 1 3.2 2.8 13.67 13.67 0 0 1 1.73 3.81 15.87 15.87 0 0 1 .58 4.29 15.49 15.49 0 0 1-.58 4.29 14 14 0 0 1-1.73 3.81 8.1 8.1 0 0 1-3.2 2.8 10.32 10.32 0 0 1-4.72 1.08Zm0-4.85a4 4 0 0 0 2.9-1.17 6.31 6.31 0 0 0 1.65-2.71 11 11 0 0 0 .46-3.22 12.17 12.17 0 0 0-.43-3.32A5.89 5.89 0 0 0 614 359a4.42 4.42 0 0 0-6 0 5.91 5.91 0 0 0-1.63 2.71A11.87 11.87 0 0 0 606 365a11.69 11.69 0 0 0 .26 2.47 9 9 0 0 0 .83 2.26 4.51 4.51 0 0 0 1.58 1.72 4.35 4.35 0 0 0 2.38.64ZM645.29 376.51h-4.39l-8.71-12.24a12.9 12.9 0 0 1-1-1.75 10.67 10.67 0 0 1 .1 1.75v12.24h-4.95v-23.1h4.59l8.48 12.11a8.34 8.34 0 0 1 1 1.72 12.05 12.05 0 0 1-.1-1.75v-12.08h5v23.1Z"/></svg>